# xmcd CD database file
#
# Track frame offsets:
#	150
#	17358
#	33743
#	45645
#	78425
#	113670
#	149257
#	186721
#	207285
#	231841
#
# Disc length: 3396 seconds
#
# Revision: 3
# Processed by: cddbd v1.5.2PL0 Copyright (c) Steve Scherf et al.
# Submitted via: CDex 1.51
#
DISCID=860d420a
DTITLE=Freddie King - Mojo Blues
DYEAR=1900
DGENRE=Blues
TTITLE0=Living In The Palace Of The King
TTITLE1=Please Accept My Love
TTITLE2=Shake Your Booty Baby
TTITLE3=Mojo Boogie
TTITLE4=Big Legged Woman
TTITLE5=Hey Baby
TTITLE6=Look On Yonder Wall
TTITLE7=Woman Across The River
TTITLE8=Have You Ever Loved A Woman
TTITLE9=Rock Me Baby
EXTD=
EXTT0=
EXTT1=
EXTT2=
EXTT3=
EXTT4=
EXTT5=
EXTT6=
EXTT7=
EXTT8=
EXTT9=
PLAYORDER=
